<?xml version="1.0" encoding="UTF-8" standalone="no"?><!DOCTYPE svg PUBLIC "-//W3C//DTD SVG 1.1//EN" "http://www.w3.org/Graphics/SVG/1.1/DTD/svg11.dtd"><svg width="100%" height="100%" viewBox="0 0 534 534" version="1.1" xmlns="http://www.w3.org/2000/svg" xmlns:xlink="http://www.w3.org/1999/xlink" xml:space="preserve" xmlns:serif="http://www.serif.com/" style="fill-rule:evenodd;clip-rule:evenodd;stroke-linejoin:round;stroke-miterlimit:2;"><path d="M199.451,110.066c-5.507,-10.413 -8.622,-22.256 -8.622,-34.814c0,-41.533 34.077,-75.252 76.05,-75.252c41.973,0 76.05,33.719 76.05,75.252c0,12.558 -3.115,24.401 -8.622,34.814l-67.428,124.174l-67.428,-124.174Z"/><path d="M110.066,334.268c-10.413,5.507 -22.256,8.622 -34.814,8.622c-41.533,0 -75.252,-34.077 -75.252,-76.05c0,-41.973 33.719,-76.05 75.252,-76.05c12.558,0 24.401,3.115 34.814,8.622l124.174,67.428l-124.174,67.428Z"/><path d="M334.048,423.174c5.507,10.413 8.622,22.256 8.622,34.814c0,41.533 -34.077,75.252 -76.05,75.252c-41.973,0 -76.05,-33.719 -76.05,-75.252c0,-12.558 3.115,-24.401 8.622,-34.814l67.428,-124.174l67.428,124.174Z"/><path d="M423.174,199.412c10.413,-5.507 22.256,-8.622 34.814,-8.622c41.533,0 75.252,34.077 75.252,76.05c0,41.973 -33.719,76.05 -75.252,76.05c-12.558,0 -24.401,-3.115 -34.814,-8.622l-124.174,-67.428l124.174,-67.428Z"/><path d="M378.155,443.736c-7.598,-2.342 -14.737,-6.507 -20.73,-12.5c-19.822,-19.822 -19.651,-52.178 0.381,-72.21c20.032,-20.032 52.388,-20.203 72.21,-0.381c5.993,5.993 10.159,13.132 12.5,20.73l27.082,91.443l-91.443,-27.082Z"/><path d="M378.414,90.738l91.443,-27.082l-27.082,91.443c-2.342,7.598 -6.507,14.737 -12.5,20.73c-19.822,19.822 -52.178,19.651 -72.21,-0.381c-20.032,-20.032 -20.203,-52.388 -0.381,-72.21c5.993,-5.993 13.132,-10.159 20.73,-12.5Z"/><path d="M155.344,443.736l-91.443,27.082l27.082,-91.443c2.342,-7.598 6.507,-14.737 12.5,-20.73c19.822,-19.822 52.178,-19.651 72.21,0.381c20.032,20.032 20.203,52.388 0.381,72.21c-5.993,5.993 -13.132,10.159 -20.73,12.5Z"/><path d="M155.344,90.738c7.598,2.342 14.737,6.507 20.73,12.5c19.822,19.822 19.651,52.178 -0.381,72.21c-20.032,20.032 -52.388,20.203 -72.21,0.381c-5.993,-5.993 -10.159,-13.132 -12.5,-20.73l-27.082,-91.443l91.443,27.082Z"/></svg>