<?xml version="1.0" encoding="UTF-8" standalone="no"?>
<!DOCTYPE svg PUBLIC "-//W3C//DTD SVG 1.1//EN" "http://www.w3.org/Graphics/SVG/1.1/DTD/svg11.dtd">
<svg width="100%" height="100%" viewBox="0 0 565 581" version="1.1" xmlns="http://www.w3.org/2000/svg" xmlns:xlink="http://www.w3.org/1999/xlink" xml:space="preserve" xmlns:serif="http://www.serif.com/" style="fill-rule:evenodd;clip-rule:evenodd;stroke-linejoin:round;stroke-miterlimit:2;">
<path d="M214.813,110.066c-5.507,-10.413 -8.622,-22.256 -8.622,-34.814c0,-41.533 34.077,-75.252 76.05,-75.252c41.973,0 76.05,33.719 76.05,75.252c0,12.558 -3.115,24.401 -8.622,34.814l-67.428,124.174l-67.428,-124.174Zm15.868,-8.499l0.001,0.003l51.559,94.95l51.565,-94.96c4.145,-7.874 6.485,-16.822 6.485,-26.307c0,-31.651 -26.063,-57.252 -58.05,-57.252c-31.987,0 -58.05,25.601 -58.05,57.252c0,9.488 2.342,18.439 6.489,26.315l0.001,-0.001Z" style="fill:#eee;fill-opacity:0.7;"/>
<path d="M110.066,357.708c-10.413,5.507 -22.256,8.622 -34.814,8.622c-41.533,0 -75.252,-34.077 -75.252,-76.05c0,-41.973 33.719,-76.05 75.252,-76.05c12.558,0 24.401,3.115 34.814,8.622l124.174,67.428l-124.174,67.428Zm-8.499,-15.868l0.003,-0.001l94.95,-51.559l-94.96,-51.565c-7.874,-4.145 -16.822,-6.485 -26.307,-6.485c-31.651,0 -57.252,26.063 -57.252,58.05c0,31.987 25.601,58.05 57.252,58.05c9.488,0 18.439,-2.342 26.315,-6.489l-0.001,-0.001Z" style="fill:#eee;fill-opacity:0.7;"/>
<path d="M349.669,470.494c5.507,10.413 8.622,22.256 8.622,34.814c0,41.533 -34.077,75.252 -76.05,75.252c-41.973,0 -76.05,-33.719 -76.05,-75.252c0,-12.558 3.115,-24.401 8.622,-34.814l67.428,-124.174l67.428,124.174Zm-15.868,8.499l-0.001,-0.003l-51.559,-94.95l-51.565,94.96c-4.145,7.874 -6.485,16.822 -6.485,26.307c0,31.651 26.063,57.252 58.05,57.252c31.987,0 58.05,-25.601 58.05,-57.252c0,-9.488 -2.342,-18.439 -6.489,-26.315l-0.001,0.001Z" style="fill:#eee;fill-opacity:0.7;"/>
<path d="M454.415,222.852c10.413,-5.507 22.256,-8.622 34.814,-8.622c41.533,0 75.252,34.077 75.252,76.05c0,41.973 -33.719,76.05 -75.252,76.05c-12.558,0 -24.401,-3.115 -34.814,-8.622l-124.174,-67.428l124.174,-67.428Zm8.499,15.868l-0.003,0.001l-94.95,51.559l94.96,51.565c7.874,4.145 16.822,6.485 26.307,6.485c31.651,0 57.252,-26.063 57.252,-58.05c0,-31.987 -25.601,-58.05 -57.252,-58.05c-9.488,0 -18.439,2.342 -26.315,6.489l0.001,0.001Z" style="fill:#eee;fill-opacity:0.7;"/>
<path d="M429.369,499.822c-7.598,-2.342 -14.737,-6.507 -20.73,-12.5c-19.822,-19.822 -19.651,-52.178 0.381,-72.21c20.032,-20.032 52.388,-20.203 72.21,-0.381c5.993,5.993 10.159,13.132 12.5,20.73l27.082,91.443l-91.443,-27.082Zm5.214,-17.229l0.004,0.001l59.553,17.638l-17.642,-59.566c-1.508,-4.841 -4.175,-9.386 -7.997,-13.207c-12.834,-12.834 -33.784,-12.59 -46.754,0.381c-12.97,12.97 -13.215,33.92 -0.381,46.754c3.824,3.824 8.372,6.492 13.216,7.999l0.001,0Z" style="fill:#eee;fill-opacity:0.7;"/>
<path d="M429.369,85.131l91.443,-27.082l-27.082,91.443c-2.342,7.598 -6.507,14.737 -12.5,20.73c-19.822,19.822 -52.178,19.651 -72.21,-0.381c-20.032,-20.032 -20.203,-52.388 -0.381,-72.21c5.993,-5.993 13.132,-10.159 20.73,-12.5Zm5.218,17.227l-0.013,0.004c-4.841,1.508 -9.386,4.175 -13.207,7.997c-12.834,12.834 -12.59,33.784 0.381,46.754c12.97,12.97 33.92,13.215 46.754,0.381c3.824,-3.824 6.492,-8.372 8.001,-13.22l17.638,-59.553l-59.553,17.638l-0.001,-0.001Z" style="fill:#eee;fill-opacity:0.7;"/>
<path d="M135.167,499.822l-91.443,27.082l27.082,-91.443c2.342,-7.598 6.507,-14.737 12.5,-20.73c19.822,-19.822 52.178,-19.651 72.21,0.381c20.032,20.032 20.203,52.388 0.381,72.21c-5.993,5.993 -13.132,10.159 -20.73,12.5Zm-5.218,-17.227l0.013,-0.004c4.841,-1.508 9.386,-4.175 13.207,-7.997c12.834,-12.834 12.59,-33.784 -0.381,-46.754c-12.97,-12.97 -33.92,-13.215 -46.754,-0.381c-3.824,3.824 -6.492,8.372 -8.001,13.22l-17.638,59.553l59.553,-17.638l0.001,0.001Z" style="fill:#eee;fill-opacity:0.7;"/>
<path d="M135.167,85.131c7.598,2.342 14.737,6.507 20.73,12.5c19.822,19.822 19.651,52.178 -0.381,72.21c-20.032,20.032 -52.388,20.203 -72.21,0.381c-5.993,-5.993 -10.159,-13.132 -12.5,-20.73l-27.082,-91.443l91.443,27.082Zm-5.214,17.229l-0.004,-0.001l-59.553,-17.638l17.642,59.566c1.508,4.841 4.175,9.386 7.997,13.207c12.834,12.834 33.784,12.59 46.754,-0.381c12.97,-12.97 13.215,-33.92 0.381,-46.754c-3.824,-3.824 -8.372,-6.492 -13.216,-7.999l-0.001,0Z" style="fill:#eee;fill-opacity:0.7;"/>
</svg>